<?xml version="1.0" standalone="no"?>
<!DOCTYPE svg PUBLIC "-//W3C//DTD SVG 20010904//EN"
 "http://www.w3.org/TR/2001/REC-SVG-20010904/DTD/svg10.dtd">
<svg version="1.0" xmlns="http://www.w3.org/2000/svg"
 width="200.000000pt" height="200.000000pt" viewBox="0 0 200.000000 200.000000"
 preserveAspectRatio="xMidYMid meet">

<g transform="translate(0.000000,200.000000) scale(0.100000,-0.100000)"
fill="#000000" stroke="none">
<path d="M0 1000 l0 -1000 1000 0 1000 0 0 1000 0 1000 -1000 0 -1000 0 0
-1000z m1450 300 l0 -450 -67 0 -68 0 -68 106 c-60 93 -67 109 -61 140 3 18 8
34 11 34 22 0 43 -28 54 -70 8 -33 18 -50 28 -50 9 0 33 -32 56 -73 36 -64 43
-72 70 -72 l30 0 0 63 c-1 34 -2 231 -3 437 l-2 375 -347 3 -348 2 358 3 357
2 0 -450z m-312 302 c-9 -11 -14 -10 -26 2 -13 12 -13 18 -2 31 11 14 14 13
25 -2 10 -13 10 -22 3 -31z m197 -71 c7 -12 -12 -24 -25 -16 -11 7 -4 25 10
25 5 0 11 -4 15 -9z m-610 -75 c12 -12 12 -16 0 -26 -21 -18 -51 6 -34 26 14
17 17 17 34 0z m274 0 c9 -10 8 -16 -4 -26 -21 -17 -51 6 -34 26 6 8 15 14 19
14 4 0 13 -6 19 -14z m250 -132 c-8 -10 -14 -11 -24 -1 -19 17 2 42 21 26 11
-9 11 -15 3 -25z m-415 -13 c3 -5 -1 -14 -8 -20 -16 -13 -32 2 -21 19 8 12 22
13 29 1z m299 -120 c16 -29 24 -56 21 -66 -5 -12 -16 -2 -45 45 -22 33 -39 63
-39 65 0 3 8 5 18 5 10 0 28 -20 45 -49z"/>
</g>
</svg>
