<?xml version="1.0" standalone="no"?>
<!DOCTYPE svg PUBLIC "-//W3C//DTD SVG 20010904//EN"
 "http://www.w3.org/TR/2001/REC-SVG-20010904/DTD/svg10.dtd">
<svg version="1.0" xmlns="http://www.w3.org/2000/svg"
 width="500.000000pt" height="500.000000pt" viewBox="0 0 500.000000 500.000000"
 preserveAspectRatio="xMidYMid meet">

<g transform="translate(0.000000,500.000000) scale(0.100000,-0.100000)"
fill="#000000" stroke="none">
<path d="M3800 4059 c0 -14 5 -19 17 -17 26 5 29 38 4 38 -15 0 -21 -6 -21
-21z"/>
<path d="M3811 4008 c-1 -12 -15 -21 -47 -29 -55 -14 -120 -71 -129 -114 -12
-52 -14 -55 -44 -55 -16 0 -33 -5 -37 -12 -5 -8 2 -9 24 -5 16 3 69 3 115 0
70 -5 85 -9 85 -22 -1 -9 6 -40 15 -70 9 -30 15 -57 12 -59 -9 -10 -82 18
-107 40 -14 13 -35 41 -47 63 l-22 40 5 -33 c11 -68 76 -122 145 -122 17 0 31
-5 31 -12 0 -9 3 -9 12 0 7 7 20 12 30 12 32 0 113 47 127 73 7 13 16 40 20
58 7 32 9 34 44 31 28 -3 37 0 37 12 0 11 -9 15 -36 13 -35 -2 -37 0 -49 41
-8 24 -22 53 -32 64 -20 23 -75 52 -115 62 -14 3 -29 14 -31 24 -4 16 -5 16
-6 0z m-8 -116 c-5 -75 -7 -81 -22 -68 -15 13 -24 13 -76 1 -33 -7 -62 -12
-64 -10 -12 12 16 66 53 101 34 32 101 67 113 59 2 -1 0 -38 -4 -83z m91 56
c46 -22 86 -77 86 -117 0 -24 -2 -25 -52 -10 -44 11 -47 25 -16 65 20 27 19
27 -13 -4 -29 -28 -32 -35 -21 -52 13 -22 2 -31 -50 -44 -35 -8 -35 0 -1 36
25 26 26 30 15 66 -15 48 -15 82 -2 82 5 0 29 -10 54 -22z m77 -205 c-12 -31
-25 -48 -35 -47 -9 1 -13 -2 -11 -7 6 -8 -32 -31 -72 -43 -19 -6 -23 -4 -23
16 2 65 67 128 132 128 l28 0 -19 -47z"/>
<path d="M3710 3893 c0 -13 29 -38 35 -31 3 3 -4 13 -15 23 -11 10 -20 13 -20
8z"/>
<path d="M3885 3730 c10 -11 20 -20 23 -20 3 0 -3 9 -13 20 -10 11 -20 20 -23
20 -3 0 3 -9 13 -20z"/>
<path d="M2010 3849 c0 -14 92 -128 160 -197 28 -28 61 -71 73 -96 l23 -45 32
19 c18 11 32 24 32 28 0 16 -111 131 -203 209 -106 91 -117 99 -117 82z"/>
<path d="M2482 3768 c-16 -16 -15 -28 3 -28 8 0 15 9 15 20 0 23 -2 24 -18 8z"/>
<path d="M3734 3728 l-19 -23 23 19 c12 11 22 21 22 23 0 8 -8 2 -26 -19z"/>
<path d="M2808 3646 c-114 -75 -325 -197 -361 -210 -18 -6 -49 -21 -69 -34
-21 -13 -43 -20 -49 -16 -8 4 -9 3 -5 -4 4 -7 2 -12 -3 -12 -6 0 -13 0 -16 0
-3 0 -14 -9 -25 -20 -12 -12 -26 -18 -32 -14 -6 4 -8 3 -5 -3 7 -11 -50 -40
-66 -35 -5 1 -6 -2 -2 -8 4 -6 -26 -26 -72 -47 -61 -29 -93 -37 -148 -40 -84
-4 -112 9 -77 35 13 9 37 28 52 42 l29 25 -59 65 c-43 47 -62 62 -70 54 -15
-15 7 -107 24 -97 6 4 5 -1 -3 -10 -11 -14 -11 -20 -1 -32 15 -18 7 -30 -32
-49 -33 -17 -136 0 -143 24 -3 10 -19 23 -36 30 -16 7 -27 15 -25 18 6 6 -11
23 -46 46 -16 10 -28 25 -28 32 0 8 -5 14 -10 14 -16 0 -69 90 -76 129 -7 33
-34 75 -34 52 0 -6 -5 -10 -12 -8 -6 1 -27 -23 -46 -53 -32 -53 -33 -58 -29
-140 7 -147 63 -265 180 -383 120 -121 223 -174 390 -203 215 -38 437 14 721
166 50 26 128 63 174 80 45 17 82 36 82 41 0 6 4 8 9 5 5 -3 32 2 62 12 29 10
48 22 42 25 -6 4 -19 4 -30 1 -17 -5 -17 -5 0 6 10 7 23 8 33 2 16 -9 134 6
134 17 0 3 64 7 143 9 117 3 158 0 232 -18 101 -23 229 -81 300 -135 26 -20
49 -34 52 -31 8 7 -14 113 -37 187 -26 79 -78 189 -91 189 -6 0 -7 5 -4 10 3
6 2 10 -2 10 -5 0 -14 -9 -21 -21 -7 -11 -19 -18 -27 -16 -7 3 -21 -3 -31 -14
-9 -10 -27 -19 -39 -19 -13 0 -28 -7 -35 -15 -14 -17 -67 -45 -85 -45 -6 0
-21 -9 -33 -20 -20 -19 -22 -19 -31 -2 -6 9 -11 12 -11 5 0 -8 -32 -11 -111
-10 -74 1 -113 -3 -117 -10 -10 -15 -57 -33 -107 -40 -22 -3 -48 -9 -58 -15
-9 -5 -21 -6 -26 -3 -5 3 -31 -3 -58 -14 -30 -11 -70 -18 -108 -17 -52 1 -61
4 -70 24 -5 12 -13 22 -17 22 -4 0 -10 20 -13 44 -6 41 13 109 36 126 9 7 20
75 13 82 -3 4 -22 -5 -41 -18 -20 -13 -41 -24 -48 -24 -9 0 -15 -35 -20 -127
-7 -120 -20 -173 -44 -173 -4 0 -20 33 -36 73 -15 39 -50 116 -76 169 l-49 97
53 25 c80 39 140 74 149 88 5 8 8 -2 8 -26 0 -36 1 -38 26 -32 14 4 32 2 39
-4 23 -19 165 159 165 207 0 12 -3 23 -7 25 -5 2 -43 -19 -85 -46z m-956 -418
c-7 -7 -12 -8 -12 -2 0 14 12 26 19 19 2 -3 -1 -11 -7 -17z m316 -90 c-4 -71
-14 -88 -50 -88 -12 0 -30 23 -53 70 -30 61 -33 70 -18 71 10 0 41 10 68 23
59 27 59 27 53 -76z m276 86 c9 -3 16 -12 16 -20 0 -8 5 -23 12 -34 14 -23 10
-29 -26 -36 -19 -3 -26 0 -26 11 0 8 -9 15 -20 15 -25 0 -26 26 -3 52 18 20
23 21 47 12z"/>
<path d="M3802 3538 c2 -12 10 -23 18 -23 22 0 19 39 -3 43 -15 3 -18 -1 -15
-20z"/>
<path d="M3279 3503 c6 -13 9 -35 5 -50 l-6 -28 23 23 23 22 -28 28 c-25 23
-27 24 -17 5z"/>
<path d="M1942 3471 c-10 -6 7 -17 54 -35 49 -20 70 -24 78 -16 8 8 6 9 -8 4
-13 -5 -17 -4 -12 4 5 8 0 12 -13 12 -12 0 -21 5 -21 10 0 6 -16 10 -36 10
-21 0 -33 4 -29 10 7 12 4 12 -13 1z"/>
<path d="M3685 3359 c-4 -6 -5 -12 -2 -15 2 -3 7 2 10 11 7 17 1 20 -8 4z"/>
<path d="M2888 3133 c7 -3 16 -2 19 1 4 3 -2 6 -13 5 -11 0 -14 -3 -6 -6z"/>
<path d="M3254 2950 c-79 -14 -202 -56 -282 -95 -40 -19 -76 -35 -81 -35 -11
0 -223 -142 -276 -185 -69 -56 -237 -167 -305 -200 -90 -45 -204 -78 -272 -79
-31 -1 -51 -4 -45 -8 6 -4 -44 -5 -111 -3 -95 3 -143 10 -213 30 -91 27 -164
62 -168 80 -2 6 -5 12 -8 15 -4 3 -3 -1 2 -9 5 -9 3 -12 -6 -9 -8 3 -13 10
-12 16 2 6 -3 9 -11 6 -8 -3 -27 11 -46 33 -18 21 -29 31 -25 23 4 -8 -3 -4
-14 10 -11 14 -21 29 -21 34 0 5 -3 7 -6 3 -4 -3 -23 13 -43 35 -20 23 -44 50
-54 60 -30 32 -85 143 -104 209 -16 59 -18 62 -24 34 -31 -145 15 -271 162
-437 85 -98 262 -196 413 -230 114 -26 280 -27 381 -3 136 32 319 123 456 227
364 277 432 317 606 364 148 40 280 43 408 10 127 -33 210 -74 280 -138 l55
-50 0 70 c0 48 -4 73 -14 81 -11 9 -16 9 -22 0 -5 -8 -3 -9 6 -4 9 5 11 4 6
-3 -4 -7 -2 -12 3 -12 6 0 11 -5 11 -10 0 -6 -25 10 -56 35 -60 49 -156 97
-243 120 -68 19 -258 27 -327 15z"/>
<path d="M3260 2644 c-196 -51 -362 -153 -567 -347 -203 -192 -308 -274 -432
-337 -46 -22 -80 -37 -77 -32 3 6 -15 4 -42 -4 -63 -19 -74 -25 -32 -18 19 4
31 3 27 -2 -4 -4 -34 -9 -65 -11 -31 -2 -114 -6 -183 -9 -146 -7 -254 10 -356
56 -35 16 -73 30 -85 32 -13 2 -30 10 -38 18 -8 9 -11 10 -6 3 11 -17 -8 -17
-23 0 -6 8 -7 18 -3 22 4 5 2 5 -4 2 -15 -8 -56 22 -48 35 4 7 2 8 -5 4 -12
-8 -32 33 -23 48 3 5 0 6 -7 2 -6 -4 -9 -12 -6 -17 4 -5 4 -9 1 -9 -3 0 -13
14 -21 30 -15 28 -35 33 -35 9 0 -6 5 -7 12 -3 7 4 8 3 4 -5 -9 -14 53 -130
102 -190 46 -56 183 -123 309 -151 109 -24 258 -26 373 -4 88 17 252 87 333
142 23 16 64 44 91 62 27 18 132 112 234 208 228 215 371 315 521 363 207 66
433 26 594 -104 31 -26 57 -46 57 -44 0 2 5 29 11 61 10 57 10 59 -18 88 -35
37 -64 54 -61 36 4 -18 -9 -16 -73 15 -131 63 -329 85 -459 51z m590 -121 c0
-8 5 -11 12 -7 7 4 8 3 4 -4 -5 -8 -18 -3 -41 15 -19 15 -32 31 -29 35 7 12
54 -22 54 -39z m-2193 -639 c-3 -3 -12 -4 -19 -1 -8 3 -5 6 6 6 11 1 17 -2 13
-5z"/>
<path d="M3495 2379 c17 -5 44 -5 60 0 24 6 19 8 -30 8 -50 0 -55 -1 -30 -8z"/>
<path d="M3340 2356 c-86 -18 -158 -48 -239 -97 -131 -80 -158 -104 -381 -335
-74 -76 -138 -138 -143 -136 -5 1 -6 -2 -3 -7 6 -9 -76 -86 -92 -86 -19 -1
-52 -27 -46 -37 4 -6 3 -8 -4 -4 -5 3 -23 -4 -39 -17 -67 -55 -169 -100 -193
-87 -8 4 -58 10 -110 13 -90 5 -106 8 -147 24 -10 3 -20 7 -23 8 -3 1 -18 7
-34 14 -45 18 -116 32 -128 25 -6 -4 -8 -2 -4 4 3 6 -6 15 -21 20 l-28 10 25
11 c23 10 21 11 -15 7 l-40 -5 30 15 30 15 -27 -6 c-16 -3 -28 -1 -28 3 0 5
-12 7 -26 4 -21 -4 -25 -2 -19 8 6 10 4 12 -8 7 -10 -3 -17 -3 -17 1 0 11
-140 55 -148 47 -11 -11 98 -104 114 -98 9 3 12 0 9 -9 -12 -30 265 -209 422
-272 l72 -29 63 18 c207 57 418 214 646 480 99 115 219 234 277 275 155 107
328 150 486 120 63 -12 174 -62 207 -93 20 -18 24 -19 32 -7 11 17 30 79 30
97 0 18 -81 75 -97 68 -9 -3 -11 0 -7 7 5 7 0 9 -14 6 -12 -4 -20 -2 -16 3 7
12 -9 12 -21 0 -6 -6 -31 -4 -65 5 -81 21 -186 25 -260 10z m-1749 -653 c13
-16 12 -17 -3 -4 -17 13 -22 21 -14 21 2 0 10 -8 17 -17z"/>
<path d="M1220 2181 c0 -6 4 -13 10 -16 6 -3 7 1 4 9 -7 18 -14 21 -14 7z"/>
<path d="M3333 2099 c-18 -5 -33 -11 -33 -13 0 -2 28 -2 63 0 l62 3 -65 -14
c-74 -17 -190 -73 -264 -127 -27 -20 -54 -34 -59 -31 -6 3 -7 2 -4 -4 4 -6 -5
-15 -18 -21 -14 -7 -25 -17 -24 -24 0 -10 2 -10 6 0 2 6 9 12 15 12 7 0 6 -5
-2 -14 -6 -8 -19 -12 -27 -9 -12 5 -15 2 -10 -10 3 -9 1 -19 -5 -23 -7 -5 -9
-2 -4 7 4 8 1 5 -6 -5 -7 -10 -28 -34 -45 -52 -18 -18 -33 -40 -33 -49 0 -9
-7 -18 -15 -22 -22 -8 -66 -74 -58 -86 3 -6 1 -7 -5 -3 -6 4 -19 -5 -28 -19
-9 -14 -23 -24 -30 -21 -9 3 -11 -1 -7 -12 5 -14 3 -13 -9 2 -14 18 -18 18
-49 5 -19 -7 -36 -14 -39 -15 -3 0 -21 -8 -40 -16 -19 -9 -38 -14 -42 -12 -5
3 -8 -2 -8 -10 0 -11 -8 -14 -30 -11 -17 2 -28 0 -25 -5 3 -5 13 -6 23 -3 9 3
14 3 10 -2 -4 -4 -20 -9 -35 -10 -50 -3 -54 -5 -48 -15 4 -6 11 -7 17 -4 6 4
8 2 5 -4 -4 -5 -15 -8 -25 -5 -10 2 -43 -11 -75 -30 -31 -19 -85 -45 -119 -58
l-63 -23 60 -13 c86 -17 268 -31 350 -25 62 4 75 9 114 41 45 37 117 130 253
327 95 137 182 220 284 270 75 38 79 38 188 38 113 -1 179 -16 217 -50 15 -13
19 -9 48 47 17 34 29 64 26 67 -3 3 -5 0 -5 -7 0 -7 -29 4 -67 26 -66 37 -71
38 -178 40 -60 1 -125 -2 -142 -8z"/>
<path d="M3221 2054 c-18 -8 -31 -17 -28 -20 5 -6 67 23 67 31 0 6 3 7 -39
-11z"/>
<path d="M3371 1815 c-94 -27 -134 -50 -210 -123 -70 -68 -89 -84 -77 -64 9
14 -30 7 -57 -11 -15 -9 -37 -19 -49 -21 -13 -1 -23 -8 -23 -14 0 -6 -7 -17
-16 -24 -8 -7 -42 -51 -75 -97 -32 -46 -72 -95 -89 -109 -22 -18 -25 -23 -10
-19 11 3 47 13 80 21 174 44 311 105 454 200 110 74 261 212 261 239 0 10 -4
16 -9 13 -5 -4 -11 -1 -13 4 -6 18 -109 21 -167 5z"/>
<path d="M3803 1804 c-6 -16 15 -37 29 -28 4 3 8 14 8 25 0 23 -28 26 -37 3z"/>
<path d="M3812 1669 c-7 -42 -12 -82 -10 -88 3 -13 -39 -19 -172 -25 -48 -2
-66 -7 -68 -18 -2 -13 9 -14 72 -10 103 6 146 -3 147 -31 0 -12 5 -31 10 -42
7 -15 8 -9 4 22 -4 37 -2 44 29 71 33 29 34 32 24 69 -6 21 -13 58 -17 83 l-7
45 -12 -76z"/>
<path d="M1768 1693 c6 -2 18 -2 25 0 6 3 1 5 -13 5 -14 0 -19 -2 -12 -5z"/>
<path d="M1788 1663 c7 -3 16 -2 19 1 4 3 -2 6 -13 5 -11 0 -14 -3 -6 -6z"/>
<path d="M3877 1542 c-17 -7 -37 -10 -45 -7 -12 4 -13 -2 -9 -32 7 -43 -1 -85
-15 -77 -8 5 -5 -18 13 -76 7 -23 7 -22 8 9 1 28 28 135 37 149 6 9 189 29
192 21 7 -17 42 -10 42 9 0 15 -11 17 -96 17 -56 0 -110 -5 -127 -13z"/>
<path d="M3807 1293 c-13 -12 -7 -41 8 -47 18 -6 30 16 21 39 -6 16 -18 19
-29 8z"/>
</g>
</svg>
